HIERARCHY
ROOT Hips
{
	OFFSET 0.000000 0.000000 0.000000
	CHANNELS 6 Xposition Yposition Zposition Xrotation Yrotation Zrotation
	JOINT LeftUpLeg_virtual
	{
		OFFSET 0.000000 0.000000 0.000000
		CHANNELS 3 Xrotation Yrotation Zrotation
		JOINT LeftUpLeg
		{
			OFFSET 10.205400 -3.823500 0.155100
			CHANNELS 3 Xrotation Yrotation Zrotation
			JOINT LeftLeg
			{
				OFFSET 0.708757 -12.982077 0.567790
				CHANNELS 3 Xrotation Yrotation Zrotation
				JOINT LeftFoot
				{
					OFFSET -0.708756 -10.717838 -2.184338
					CHANNELS 3 Xrotation Yrotation Zrotation
					JOINT LeftToeBase
					{
						OFFSET 0.108149 -7.191104 7.560241
						CHANNELS 3 Xrotation Yrotation Zrotation
						JOINT LeftToe_End
						{
							OFFSET 0.070230 0.081724 4.490308
							CHANNELS 3 Xrotation Yrotation Zrotation
							End Site
							{
								OFFSET 0 0 0
							}
						}
					}
				}
			}
		}
	}
	JOINT RightUpLeg_virtual
	{
		OFFSET 0.000000 0.000000 0.000000
		CHANNELS 3 Xrotation Yrotation Zrotation
		JOINT RightUpLeg
		{
			OFFSET -10.205400 -3.823500 0.005500
			CHANNELS 3 Xrotation Yrotation Zrotation
			JOINT RightLeg
			{
				OFFSET -0.708756 -12.982134 0.610632
				CHANNELS 3 Xrotation Yrotation Zrotation
				JOINT RightFoot
				{
					OFFSET 0.708754 -10.717769 -1.945823
					CHANNELS 3 Xrotation Yrotation Zrotation
					JOINT RightToeBase
					{
						OFFSET -0.108140 -7.191069 7.372968
						CHANNELS 3 Xrotation Yrotation Zrotation
						JOINT RightToe_End
						{
							OFFSET -0.070227 0.081735 4.479403
							CHANNELS 3 Xrotation Yrotation Zrotation
							End Site
							{
								OFFSET 0 0 0
							}
						}
					}
				}
			}
		}
	}
	JOINT Spine_virtual
	{
		OFFSET 0.000000 0.000000 0.000000
		CHANNELS 3 Xrotation Yrotation Zrotation
		JOINT Spine
		{
			OFFSET 0.000000 6.876099 0.125700
			CHANNELS 3 Xrotation Yrotation Zrotation
			JOINT Spine1
			{
				OFFSET 0.000000 5.730043 0.104720
				CHANNELS 3 Xrotation Yrotation Zrotation
				JOINT Spine1_split
				{
					OFFSET 0.000000 5.730043 0.104720
					CHANNELS 3 Xrotation Yrotation Zrotation
					JOINT Spine2
					{
						OFFSET 0.000000 5.730043 0.104720
						CHANNELS 3 Xrotation Yrotation Zrotation
						JOINT Neck_virtual
						{
							OFFSET 0.000000 0.000000 0.000000
							CHANNELS 3 Xrotation Yrotation Zrotation
							JOINT Neck
							{
								OFFSET 0.000000 10.314075 0.188496
								CHANNELS 3 Xrotation Yrotation Zrotation
								JOINT Head
								{
									OFFSET 0.000000 7.643700 -2.377400
									CHANNELS 3 Xrotation Yrotation Zrotation
									JOINT HeadTop_End
									{
										OFFSET 0.000000 43.788605 -13.619600
										CHANNELS 3 Xrotation Yrotation Zrotation
										End Site
										{
											OFFSET 0 0 0
										}
									}
								}
							}
						}
						JOINT LeftShoulder_virtual
						{
							OFFSET 0.000000 0.000000 0.000000
							CHANNELS 3 Xrotation Yrotation Zrotation
							JOINT LeftShoulder
							{
								OFFSET 2.196100 4.412489 0.087492
								CHANNELS 3 Xrotation Yrotation Zrotation
								JOINT LeftShoulder_split
								{
									OFFSET 2.196100 4.412489 0.087492
									CHANNELS 3 Xrotation Yrotation Zrotation
									JOINT LeftArm
									{
										OFFSET 8.771219 -2.981674 -0.026999
										CHANNELS 3 Xrotation Yrotation Zrotation
										JOINT LeftForeArm
										{
											OFFSET 8.512804 0.000000 -0.000000
											CHANNELS 3 Xrotation Yrotation Zrotation
											JOINT LeftHand
											{
												OFFSET 18.484802 0.000000 -0.000000
												CHANNELS 3 Xrotation Yrotation Zrotation
												End Site
												{
													OFFSET 0 0 0
												}
											}
										}
									}
								}
							}
						}
						JOINT RightShoulder_virtual
						{
							OFFSET 0.000000 0.000000 0.000000
							CHANNELS 3 Xrotation Yrotation Zrotation
							JOINT RightShoulder
							{
								OFFSET -2.196100 4.412496 0.070690
								CHANNELS 3 Xrotation Yrotation Zrotation
								JOINT RightShoulder_split
								{
									OFFSET -2.196100 4.412496 0.070690
									CHANNELS 3 Xrotation Yrotation Zrotation
									JOINT RightArm
									{
										OFFSET -8.771282 -2.981682 -0.094208
										CHANNELS 3 Xrotation Yrotation Zrotation
										JOINT RightForeArm
										{
											OFFSET -8.494598 0.000000 0.000000
											CHANNELS 3 Xrotation Yrotation Zrotation
											JOINT RightHand
											{
												OFFSET -18.483803 0.000000 0.000001
												CHANNELS 3 Xrotation Yrotation Zrotation
												End Site
												{
													OFFSET 0 0 0
												}
											}
										}
									}
								}
							}
						}
					}
				}
			}
		}
	}
}
MOTION
Frames: 11
Frame Time: 0.03333333
-22.557316 10.812763 -3.423159 0.000000 0.000000 0.000000 -71.505674 16.477333 100.113703 -5.185770 31.429436 -6.061887 50.397613 -0.613386 -22.438633 -18.190016 -10.530682 33.057825 0.105346 -5.669302 6.906530 0.000000 0.000000 0.000000 -69.300909 10.653805 97.016103 -43.674866 -13.250957 -41.915116 137.926477 8.359603 14.327029 -5.685470 -0.316637 4.780928 7.898542 5.418743 -72.045191 0.000000 0.000000 0.000000 -73.588465 15.763235 100.020122 27.661698 -4.251764 -11.425477 3.593324 -2.713928 -3.922547 0.016526 2.920671 -0.469395 0.000000 0.000000 0.000000 5.724615 -1.798510 -0.815635 10.747825 -35.965010 7.979746 -20.072490 -11.694565 -26.513319 0.000000 0.000000 0.000000 2.515194 0.107130 -6.352517 -3.853259 16.412098 -5.783417 1.395666 -9.481434 1.492250 -47.940852 -41.775838 -29.718221 34.785860 39.253483 -2.484857 0.000000 0.000000 0.000000 10.928916 -0.373252 -4.322382 3.613508 -13.681151 -19.804810 -22.545370 -9.189941 9.724988 -32.119050 34.873628 17.719181 -2.393408 6.924178 10.510129 0.000000 0.000000 0.000000 
-24.173771 9.321564 -3.148193 0.000000 0.000000 0.000000 -72.383743 8.623157 101.782564 -5.959828 23.535227 -4.302950 52.066563 2.952133 -21.885956 -18.106857 -3.609070 33.121961 1.811701 -5.175823 1.702263 0.000000 0.000000 0.000000 -69.344028 3.091862 99.949361 -41.518961 -10.728167 -42.370430 136.947492 4.870485 22.218192 -12.757172 -2.773951 -0.294041 9.249551 5.088474 -70.461932 0.000000 0.000000 0.000000 -72.941031 8.393201 100.875842 28.250945 -6.746402 -11.498338 3.389649 -3.749316 -2.184649 0.058021 3.289318 -0.462400 0.000000 0.000000 0.000000 5.442230 -2.922636 0.579692 7.277331 -36.407217 8.660848 -15.687444 -11.617230 -26.243195 0.000000 0.000000 0.000000 2.262640 -1.020856 -4.644334 -3.931943 16.322779 -7.123850 1.838825 -8.280938 0.169442 -60.571989 -33.929921 -38.678077 35.935070 36.956426 -1.972186 0.000000 0.000000 0.000000 11.536433 -1.203587 -2.908179 2.663030 -13.371904 -17.103499 -26.028572 -9.290461 8.786355 -29.353735 32.066796 18.928785 -1.894010 5.710380 9.193989 0.000000 0.000000 0.000000 
-25.744425 8.532120 -3.092312 0.000000 0.000000 0.000000 -73.404344 2.544794 102.394856 -9.039794 16.240436 -1.243028 53.759295 6.056309 -21.580054 -15.307311 4.930175 30.771194 3.293314 -4.737426 -2.406509 0.000000 0.000000 0.000000 -69.744475 -3.115511 101.825621 -35.687964 -8.799986 -42.231739 131.839030 0.050013 29.888102 -15.968554 -5.429989 -2.121544 9.857846 4.938518 -67.461758 0.000000 0.000000 0.000000 -72.214552 2.349752 101.095481 28.832735 -8.276883 -11.028677 2.314950 -4.871283 -0.555198 0.098898 3.198790 -0.437042 0.000000 0.000000 0.000000 4.789905 -4.006571 1.855853 3.095320 -36.338529 9.678336 -10.937368 -8.401821 -23.526684 0.000000 0.000000 0.000000 1.153697 -1.991064 -3.013200 -4.178922 16.584210 -7.303650 2.223807 -6.466033 -2.061919 -70.661900 -20.126117 -42.951388 36.811878 33.105213 -0.509922 0.000000 0.000000 0.000000 11.026810 -2.155718 -1.762760 1.845138 -12.644808 -15.447960 -28.844210 -9.588006 7.505850 -29.240651 30.460707 23.234553 -1.403810 5.242102 7.545902 0.000000 0.000000 0.000000 
-27.241541 8.568151 -3.045845 0.000000 0.000000 0.000000 -74.444144 -1.612723 102.055553 -13.180863 10.004484 2.229603 53.591399 7.870140 -20.893497 -7.991342 13.247906 24.761589 3.742790 -4.436586 -4.507654 0.000000 0.000000 0.000000 -70.979729 -7.460449 102.216704 -27.813999 -6.827216 -42.023518 121.650177 -6.416048 36.050763 -13.439978 -8.014150 0.944557 9.174401 5.312200 -63.799404 0.000000 0.000000 0.000000 -71.667939 -2.048621 100.812609 29.487890 -8.644707 -9.981451 0.691548 -6.158759 0.632997 0.148362 2.732864 -0.445607 0.000000 0.000000 0.000000 4.026420 -5.072087 2.792674 -1.452749 -35.628487 11.216631 -6.034756 -1.549490 -19.687959 0.000000 0.000000 0.000000 -0.525422 -2.947861 -1.907321 -4.601992 16.845309 -6.090180 2.614654 -4.795143 -4.155524 -77.456729 -5.370733 -42.231620 37.544645 28.642952 1.606760 0.000000 0.000000 0.000000 9.621471 -3.326453 -1.186597 1.194326 -11.745357 -15.005021 -29.566755 -11.417030 6.164227 -30.734280 29.182731 28.886789 -1.010511 4.311435 5.746719 0.000000 0.000000 0.000000 
-28.665852 9.436729 -3.228045 0.000000 0.000000 0.000000 -75.518342 -4.343919 100.795055 -17.235952 5.652212 5.867892 50.878260 8.141275 -19.342959 3.099165 18.532392 16.387229 3.401251 -4.412684 -4.279465 0.000000 0.000000 0.000000 -73.165328 -9.932370 101.015609 -19.810513 -4.695110 -42.149132 105.639052 -14.722340 39.073508 -5.723287 -9.468331 8.539502 7.157870 6.185957 -60.246804 0.000000 0.000000 0.000000 -71.446080 -4.748298 100.402831 30.215237 -7.877489 -8.311258 -1.068202 -7.592895 1.161502 0.034861 2.100425 -0.343820 0.000000 0.000000 0.000000 3.364819 -6.246653 3.252048 -5.809983 -34.276546 13.247665 -1.187637 8.024462 -16.163277 0.000000 0.000000 0.000000 -2.331436 -4.034401 -1.603875 -5.123974 17.092977 -3.627298 2.313994 -3.880944 -5.737061 -81.265741 4.991089 -39.390073 38.347127 24.714457 4.141220 0.000000 0.000000 0.000000 7.730652 -4.718703 -1.368470 0.655136 -11.062400 -16.001806 -28.193747 -14.946471 5.234523 -32.374106 27.396932 33.997588 -0.752879 2.996992 4.024192 0.000000 0.000000 0.000000 
-30.058319 10.884248 -3.401104 0.000000 0.000000 0.000000 -76.760835 -5.607575 99.015333 -20.079327 3.558047 9.518246 45.027179 6.980502 -17.079761 13.863753 19.175080 8.608452 2.852381 -4.720558 -1.842991 0.000000 0.000000 0.000000 -76.050803 -10.716921 98.552397 -12.702261 -2.733436 -42.540908 83.827151 -23.786620 37.129537 4.104811 -9.077083 18.114246 4.495379 6.994796 -57.107195 0.000000 0.000000 0.000000 -71.205125 -6.284514 99.513295 30.838167 -6.213120 -6.184978 -2.667010 -9.116532 1.007590 -0.118067 1.505644 -0.264628 0.000000 0.000000 0.000000 2.787042 -7.624090 3.220961 -9.874848 -32.347632 15.402760 3.715646 18.496945 -13.961747 0.000000 0.000000 0.000000 -3.795657 -5.317677 -2.086610 -5.659651 17.305234 -0.197447 1.372841 -3.625235 -7.078096 -81.833808 9.280887 -36.670251 39.136977 22.489668 6.814396 0.000000 0.000000 0.000000 5.869971 -6.329804 -2.257435 0.175449 -10.823322 -18.235461 -25.644864 -20.272637 3.859958 -33.353139 25.197777 37.397495 -0.610319 1.956802 2.538951 0.000000 0.000000 0.000000 
-31.431725 12.477233 -3.400347 0.000000 0.000000 0.000000 -78.193932 -5.823231 97.112640 -21.325700 4.428212 13.331088 35.907903 4.645706 -14.771025 20.520861 16.004682 4.760446 1.291899 -5.448985 2.624938 0.000000 0.000000 0.000000 -78.851597 -10.997797 95.341108 -7.163182 -1.414687 -43.048507 61.215366 -30.623262 31.069421 12.484834 -8.068454 25.995695 3.092916 6.640105 -54.458843 0.000000 0.000000 0.000000 -71.375504 -7.065498 98.119629 31.179458 -4.011058 -3.987411 -3.892566 -10.651203 0.311294 -0.306927 1.152851 -0.210888 0.000000 0.000000 0.000000 2.329303 -9.204943 2.866323 -13.063366 -30.142014 17.428531 8.572167 27.986471 -13.296919 0.000000 0.000000 0.000000 -4.769227 -6.746622 -3.096875 -6.084566 17.493559 3.545462 -0.002935 -4.105760 -8.360048 -79.823881 8.598990 -35.203304 39.715337 22.157347 9.431127 0.000000 0.000000 0.000000 4.549776 -8.090816 -3.561660 -0.330916 -11.091458 -21.380319 -22.028893 -25.495518 2.699317 -33.960715 22.452823 38.919405 -0.535665 1.911742 1.320301 0.000000 0.000000 0.000000 
-32.800919 13.884232 -3.409056 0.000000 0.000000 0.000000 -79.436200 -5.624931 94.839362 -21.818177 7.966174 17.696173 25.488193 0.651660 -13.351688 23.905334 10.423915 4.001801 -1.701475 -6.705512 8.676219 0.000000 0.000000 0.000000 -81.040495 -11.514464 91.821498 -3.303944 -1.398420 -43.443060 43.539259 -34.372937 24.417532 17.691640 -8.211313 30.749648 4.305795 4.767983 -52.394087 0.000000 0.000000 0.000000 -71.693005 -6.977599 95.901231 31.168530 -1.678397 -2.107484 -4.585394 -12.062774 -0.553035 -0.409798 1.099216 -0.179544 0.000000 0.000000 0.000000 1.863946 -10.930067 2.435393 -15.230121 -28.079568 18.988366 13.184668 34.921907 -13.797940 0.000000 0.000000 0.000000 -5.296650 -8.157374 -4.147681 -6.393796 17.922652 6.914852 -1.686185 -4.618339 -9.385713 -76.073076 5.517207 -34.795873 39.984143 23.257918 11.981766 0.000000 0.000000 0.000000 3.999984 -9.812806 -4.819328 -0.808284 -11.650547 -25.001573 -19.109821 -28.468678 1.674713 -34.634216 19.058265 38.890004 -0.495546 3.164738 0.357688 0.000000 0.000000 0.000000 
-34.091080 14.831618 -3.280254 0.000000 0.000000 0.000000 -80.195314 -5.305646 92.479067 -22.178254 13.344906 22.500139 16.655423 -4.512639 -13.696466 26.108297 3.971726 5.171566 -4.937045 -8.401656 15.078001 0.000000 0.000000 0.000000 -82.278419 -11.997644 88.218655 -0.803363 -2.798103 -43.545140 34.218087 -36.091426 20.382599 19.783095 -9.890124 32.882757 8.023855 1.834127 -50.837521 0.000000 0.000000 0.000000 -71.874764 -6.639797 92.714880 30.814764 0.459432 -0.906942 -4.699754 -13.272305 -1.162606 -0.311617 1.322566 -0.258666 0.000000 0.000000 0.000000 1.357983 -12.532460 2.192870 -16.292364 -26.501537 19.936530 17.055974 38.892139 -14.665497 0.000000 0.000000 0.000000 -5.535034 -9.403105 -4.797402 -6.658135 18.490965 9.418683 -2.999866 -5.445834 -10.204348 -71.567897 3.202867 -34.352491 39.992151 24.695840 14.500534 0.000000 0.000000 0.000000 4.229953 -11.317558 -5.587063 -1.020802 -12.295830 -28.474552 -17.940829 -29.415391 0.103781 -36.231917 14.736330 37.889078 -0.580763 5.183051 -0.394536 0.000000 0.000000 0.000000 
-35.223442 15.304797 -3.341175 0.000000 0.000000 0.000000 -80.234635 -4.885079 90.128704 -23.091391 19.623487 27.477305 10.772602 -9.097097 -15.435157 27.958024 -1.253615 8.421486 -6.381476 -9.868659 20.411836 0.000000 0.000000 0.000000 -82.783669 -12.240814 84.917508 0.632510 -5.839428 -43.305319 31.965948 -36.995030 19.218554 19.774745 -12.137291 33.436925 12.923564 -1.183729 -49.874998 0.000000 0.000000 0.000000 -71.968016 -6.150688 88.995903 30.229925 2.251831 -0.535839 -4.346660 -14.228979 -1.250694 -0.187512 1.772342 -0.410303 0.000000 0.000000 0.000000 0.948860 -13.778775 2.328881 -16.198123 -25.722796 20.197867 19.714702 39.822062 -15.310002 0.000000 0.000000 0.000000 -5.646551 -10.322026 -4.799247 -6.880034 19.000073 10.790962 -3.564252 -6.462426 -10.386430 -67.049433 3.460621 -33.676934 40.031933 25.640462 16.960342 0.000000 0.000000 0.000000 4.977589 -12.417205 -5.624304 -0.846358 -12.781083 -31.648433 -18.478401 -28.249784 -1.282809 -38.949369 8.940982 35.694261 -0.902196 7.512875 -0.942390 0.000000 0.000000 0.000000 
-36.189629 15.396521 -3.449308 0.000000 0.000000 0.000000 -79.611517 -4.029865 87.787445 -24.014032 25.175647 31.979847 7.929410 -11.800730 -17.396514 28.654054 -3.827466 13.289937 -4.996709 -10.326645 23.762134 0.000000 0.000000 0.000000 -82.374192 -11.779499 82.205937 1.416326 -10.230175 -42.703220 32.161322 -37.094703 19.256748 19.439301 -13.173425 33.949906 17.288380 -3.335462 -49.745743 0.000000 0.000000 0.000000 -71.778554 -5.366686 85.123124 29.472283 3.693301 -0.948650 -3.647323 -14.814957 -0.732843 -0.031138 2.244482 -0.531847 0.000000 0.000000 0.000000 0.714108 -14.471783 2.798330 -15.070391 -25.831483 19.859707 21.278595 37.601585 -15.426923 0.000000 0.000000 0.000000 -5.608792 -10.850058 -4.184995 -7.100619 19.213203 11.066218 -2.449274 -7.354222 -9.068572 -62.731483 6.837112 -32.619460 40.596356 25.743145 19.237491 0.000000 0.000000 0.000000 5.794241 -12.957190 -5.007817 -0.241808 -13.002646 -34.259969 -20.628947 -26.375240 -2.393145 -42.714582 2.107530 32.231127 -1.498678 9.695512 -1.207251 0.000000 0.000000 0.000000 
